<svg preserveAspectRatio="none" overflow="visible" style="display: block;" width="28" height="16.3272" viewBox="0 0 28 16.3272" fill="none" xmlns="http://www.w3.org/2000/svg">
<g id="Group">
<path id="Vector" d="M28 0.827127L27.9949 1.15416L27.9668 1.44276L25.9994 11.7671C25.9347 12.1269 25.7694 12.449 25.4891 12.6984C25.2087 12.9477 24.9208 13.0663 24.5416 13.1472C24.5101 13.1538 24.4215 13.1628 24.4121 13.1284C23.4484 13.1399 22.4448 13.1399 21.4828 13.1284C20.9137 13.1325 20.3419 13.1366 19.7677 13.1407C19.7643 13.1521 19.7591 13.1513 19.7549 13.1407C18.2621 13.1521 16.7072 13.1521 15.2161 13.1407C14.6248 13.1448 14.0318 13.1489 13.4354 13.1529C13.432 13.1644 13.4269 13.1636 13.4217 13.1529C12.2936 13.1644 11.1178 13.1644 9.99146 13.1529C9.03122 13.157 8.06757 13.1611 7.10222 13.1652C7.09796 13.1758 7.0937 13.1758 7.08944 13.1652C6.51773 13.1767 5.91875 13.1767 5.34789 13.1652C4.8077 13.1717 4.2641 13.1726 3.71539 13.1677L3.72562 13.1938L0.510052 16.2033C0.419736 16.3063 0.0789236 16.4045 0.0167253 16.2368C-0.0122438 16.1592 0.00224077 15.9343 0.0167253 15.846C0.348166 14.2509 0.671938 12.6632 0.988893 11.082C1.47711 8.20414 1.97214 5.31645 2.47484 2.41732C2.64269 1.80086 3.22633 1.30459 3.89858 1.28742C11.2917 0.865553 18.6847 0.442047 26.077 0.0169062C26.4161 0.00382497 26.7543 -0.00189808 27.0917 0.000554656C27.5348 0.0160886 27.9889 0.386452 28 0.826309V0.827127Z" fill="url(#paint0_linear_0_10)"/>
<path id="Vector_2" d="M19.7549 13.1406C19.7515 13.1488 19.7472 13.1537 19.7259 13.1537H15.217C15.2051 13.1504 15.2059 13.1455 15.217 13.1406H19.7558H19.7549Z" fill="#68AED3"/>
<path id="Vector_3" d="M13.4217 13.1537C13.4192 13.1619 13.4132 13.1668 13.3927 13.1668H9.99143C9.9795 13.1627 9.98035 13.1586 9.99143 13.1537H13.4217Z" fill="#5697D0"/>
<path id="Vector_4" d="M24.4121 13.1284C24.4095 13.1365 24.4036 13.1414 24.384 13.1414H21.4836C21.4717 13.1373 21.4726 13.1333 21.4836 13.1284H24.4129H24.4121Z" fill="#7FC9D6"/>
<path id="Vector_5" d="M9.99147 13.1538V13.166H7.10223C7.10223 13.1611 7.10564 13.1529 7.11842 13.1529H9.99147V13.1538Z" fill="#3873CB"/>
<path id="Vector_6" d="M15.2161 13.1407V13.1529H13.4354C13.4354 13.148 13.4396 13.1399 13.4507 13.1399H15.2161V13.1407Z" fill="#5697D0"/>
<path id="Vector_7" d="M7.08944 13.166C7.08944 13.1709 7.08518 13.179 7.0741 13.179H5.34789C5.33596 13.1758 5.33681 13.1717 5.34789 13.1668H7.08944V13.166Z" fill="#3873CB"/>
<path id="Vector_8" d="M21.4828 13.1284V13.1407H19.7676C19.7676 13.1358 19.7719 13.1276 19.783 13.1276H21.4828V13.1284Z" fill="#68AED3"/>
<path id="Vector_9" d="M5.3479 13.1668V13.1791L3.71541 13.1684L5.3479 13.1668Z" fill="#1B4FC5"/>
</g>
<defs>
<linearGradient id="paint0_linear_0_10" x1="25.7082" y1="-1.18187" x2="1.1119" y2="17.1312" gradientUnits="userSpaceOnUse">
<stop stop-color="#94E4DB"/>
<stop offset="0.43" stop-color="#70B8D5"/>
<stop offset="1" stop-color="#1346C4"/>
</linearGradient>
</defs>
</svg>
