<svg preserveAspectRatio="none" overflow="visible" style="display: block;" width="250" height="251" viewBox="0 0 250 251" fill="none" xmlns="http://www.w3.org/2000/svg">
<g id="Union">
<mask id="path-1-inside-1_0_8" fill="white">
<path d="M235 0C243.284 0 250 6.71573 250 15V236C250 241.436 247.108 246.197 242.778 248.828C242.572 248.954 242.362 249.074 242.149 249.189C240.237 250.229 238.072 250.864 235.771 250.98C235.516 250.993 235.259 251 235 251H15L14.6133 250.995C14.4846 250.992 14.3564 250.987 14.2285 250.98C11.9275 250.864 9.76348 250.229 7.85059 249.189C7.63783 249.074 7.42806 248.954 7.22168 248.828C2.89213 246.197 0 241.436 0 236V71.8086C0 64.288 5.53461 58.0599 12.7529 56.9756C13.6822 56.5576 14.6604 56.2109 15.6875 55.9443C16.9462 55.6177 18.179 55.3773 19.3398 55.2617C29.7171 54.2288 38.6741 52.7263 45.6348 46.0029C51.5871 40.2535 52.9501 35.6388 54.3652 25.8262C54.6847 23.6107 55.2868 21.0793 56.0273 18.4873C59.3096 6.9993 70.4654 0 82.4131 0H235Z"/>
</mask>
<path d="M235 0C243.284 0 250 6.71573 250 15V236C250 241.436 247.108 246.197 242.778 248.828C242.572 248.954 242.362 249.074 242.149 249.189C240.237 250.229 238.072 250.864 235.771 250.98C235.516 250.993 235.259 251 235 251H15L14.6133 250.995C14.4846 250.992 14.3564 250.987 14.2285 250.98C11.9275 250.864 9.76348 250.229 7.85059 249.189C7.63783 249.074 7.42806 248.954 7.22168 248.828C2.89213 246.197 0 241.436 0 236V71.8086C0 64.288 5.53461 58.0599 12.7529 56.9756C13.6822 56.5576 14.6604 56.2109 15.6875 55.9443C16.9462 55.6177 18.179 55.3773 19.3398 55.2617C29.7171 54.2288 38.6741 52.7263 45.6348 46.0029C51.5871 40.2535 52.9501 35.6388 54.3652 25.8262C54.6847 23.6107 55.2868 21.0793 56.0273 18.4873C59.3096 6.9993 70.4654 0 82.4131 0H235Z" fill="url(#paint0_linear_0_8)"/>
<path d="M250 15H253V15H250ZM242.778 248.828L244.336 251.392H244.336L242.778 248.828ZM242.149 249.189L240.717 246.553V246.553L242.149 249.189ZM235.771 250.98L235.923 253.977V253.977L235.771 250.98ZM15 251L14.9621 254L14.9811 254H15V251ZM14.6133 250.995L14.5374 253.994L14.5564 253.995L14.5754 253.995L14.6133 250.995ZM14.2285 250.98L14.0767 253.977V253.977L14.2285 250.98ZM7.85059 249.189L9.28257 246.553H9.28256L7.85059 249.189ZM7.22168 248.828L5.66379 251.392H5.6638L7.22168 248.828ZM12.7529 56.9756L13.1986 59.9423L13.607 59.881L13.9836 59.7116L12.7529 56.9756ZM15.6875 55.9443L14.934 53.0405L14.934 53.0405L15.6875 55.9443ZM19.3398 55.2617L19.637 58.247H19.637L19.3398 55.2617ZM45.6348 46.0029L47.719 48.1607L47.719 48.1607L45.6348 46.0029ZM54.3652 25.8262L51.396 25.3979L51.396 25.398L54.3652 25.8262ZM56.0273 18.4873L53.1428 17.6632L53.1428 17.6632L56.0273 18.4873ZM235 0V3C241.627 3 247 8.37258 247 15H250H253C253 5.05888 244.941 -3 235 -3V0ZM250 15H247V236H250H253V15H250ZM250 236H247C247 240.346 244.692 244.155 241.22 246.264L242.778 248.828L244.336 251.392C249.524 248.24 253 242.527 253 236H250ZM242.778 248.828L241.22 246.264C241.057 246.364 240.889 246.46 240.717 246.553L242.149 249.189L243.581 251.826C243.835 251.688 244.087 251.543 244.336 251.392L242.778 248.828ZM242.149 249.189L240.717 246.553C239.189 247.383 237.462 247.891 235.62 247.984L235.771 250.98L235.923 253.977C238.683 253.837 241.284 253.074 243.581 251.826L242.149 249.189ZM235.771 250.98L235.62 247.984C235.414 247.995 235.208 248 235 248V251V254C235.31 254 235.617 253.992 235.923 253.977L235.771 250.98ZM235 251V248H15V251V254H235V251ZM15 251L15.0379 248L14.6512 247.995L14.6133 250.995L14.5754 253.995L14.9621 254L15 251ZM14.6133 250.995L14.6892 247.996C14.5864 247.993 14.4835 247.99 14.3803 247.984L14.2285 250.98L14.0767 253.977C14.2292 253.984 14.3828 253.99 14.5374 253.994L14.6133 250.995ZM14.2285 250.98L14.3803 247.984C12.5384 247.891 10.8106 247.383 9.28257 246.553L7.85059 249.189L6.41861 251.826C8.71633 253.074 11.3167 253.837 14.0767 253.977L14.2285 250.98ZM7.85059 249.189L9.28256 246.553C9.11063 246.46 8.94293 246.364 8.77956 246.264L7.22168 248.828L5.6638 251.392C5.9132 251.543 6.16502 251.688 6.41861 251.826L7.85059 249.189ZM7.22168 248.828L8.77956 246.264C5.30806 244.155 3 240.346 3 236H0H-3C-3 242.527 0.476205 248.24 5.66379 251.392L7.22168 248.828ZM0 236H3V71.8086H0H-3V236H0ZM0 71.8086H3C3 65.7948 7.42665 60.8094 13.1986 59.9423L12.7529 56.9756L12.3073 54.0089C3.64256 55.3105 -3 62.7813 -3 71.8086H0ZM12.7529 56.9756L13.9836 59.7116C14.76 59.3623 15.5786 59.0719 16.441 58.8482L15.6875 55.9443L14.934 53.0405C13.7421 53.3498 12.6044 53.7529 11.5223 54.2396L12.7529 56.9756ZM15.6875 55.9443L16.441 58.8482C17.5922 58.5495 18.6682 58.3434 19.637 58.247L19.3398 55.2617L19.0427 52.2765C17.6897 52.4111 16.3003 52.686 14.934 53.0405L15.6875 55.9443ZM19.3398 55.2617L19.637 58.247C29.995 57.216 39.9382 55.6762 47.719 48.1607L45.6348 46.0029L43.5505 43.8451C37.41 49.7764 29.4393 51.2416 19.0427 52.2765L19.3398 55.2617ZM45.6348 46.0029L47.719 48.1607C50.93 45.0592 53.0298 42.1315 54.48 38.5695C55.892 35.1015 56.625 31.1744 57.3345 26.2544L54.3652 25.8262L51.396 25.398C50.6904 30.2906 50.0343 33.5772 48.9229 36.307C47.8498 38.9429 46.2919 41.1973 43.5505 43.8451L45.6348 46.0029ZM54.3652 25.8262L57.3345 26.2544C57.6272 24.2248 58.1905 21.8364 58.9119 19.3114L56.0273 18.4873L53.1428 17.6632C52.3831 20.3221 51.7423 22.9967 51.396 25.3979L54.3652 25.8262ZM56.0273 18.4873L58.9119 19.3115C61.7599 9.34341 71.547 3 82.4131 3V0V-3C69.3838 -3 56.8592 4.65519 53.1428 17.6632L56.0273 18.4873ZM82.4131 0V3H235V0V-3H82.4131V0Z" fill="#1346C5" mask="url(#path-1-inside-1_0_8)"/>
</g>
<defs>
<linearGradient id="paint0_linear_0_8" x1="125" y1="1.63913e-07" x2="-60" y2="381" gradientUnits="userSpaceOnUse">
<stop stop-color="#232323"/>
<stop offset="1" stop-color="#0B266B"/>
</linearGradient>
</defs>
</svg>
